<svg version="1.1" xmlns="http://www.w3.org/2000/svg" viewBox="0 0 962.46875 744.62109375" width="962.46875" height="744.62109375" filter="invert(93%) hue-rotate(180deg)">
  <!-- svg-source:excalidraw -->
  
  <defs>
    <style class="style-fonts">
      @font-face {
        font-family: "Virgil";
        src: url("https://excalidraw.com/Virgil.woff2");
      }
      @font-face {
        font-family: "Cascadia";
        src: url("https://excalidraw.com/Cascadia.woff2");
      }
    </style>
  </defs>
  <rect x="0" y="0" width="962.46875" height="744.62109375" fill="#ffffff"></rect><g stroke-linecap="round" transform="translate(385.02734375 223.99609375) rotate(0 57.970703125 31.634765625)"><path d="M15.82 0 L100.12 0 L107.04 0.99 L109.76 2.22 L113.72 6.18 L115.69 12.11 L115.94 47.45 L115.69 51.16 L113.72 57.09 L109.76 61.05 L107.04 62.28 L100.12 63.27 L15.82 63.27 L12.11 63.02 L6.18 61.05 L2.22 57.09 L0.25 51.16 L0.25 12.11 L0.99 8.9 L3.95 3.95 L8.9 0.99 L15.82 0" stroke="none" stroke-width="0" fill="#7950f2"></path><path d="M15.82 0 M15.82 0 C38.44 0, 61.07 0, 100.12 0 M15.82 0 C44.93 0, 74.04 0, 100.12 0 M100.12 0 C110.67 0, 115.94 5.27, 115.94 15.82 M100.12 0 C110.67 0, 115.94 5.27, 115.94 15.82 M115.94 15.82 C115.94 28.43, 115.94 41.04, 115.94 47.45 M115.94 15.82 C115.94 25.15, 115.94 34.49, 115.94 47.45 M115.94 47.45 C115.94 58, 110.67 63.27, 100.12 63.27 M115.94 47.45 C115.94 58, 110.67 63.27, 100.12 63.27 M100.12 63.27 C66.63 63.27, 33.13 63.27, 15.82 63.27 M100.12 63.27 C76.34 63.27, 52.56 63.27, 15.82 63.27 M15.82 63.27 C5.27 63.27, 0 58, 0 47.45 M15.82 63.27 C5.27 63.27, 0 58, 0 47.45 M0 47.45 C0 38.1, 0 28.75, 0 15.82 M0 47.45 C0 40.84, 0 34.23, 0 15.82 M0 15.82 C0 5.27, 5.27 0, 15.82 0 M0 15.82 C0 5.27, 5.27 0, 15.82 0" stroke="#000000" stroke-width="2" fill="none"></path></g><g transform="translate(401.982421875 243.630859375) rotate(0 41.015625 12)"><text x="41.015625" y="0" font-family="Cascadia, Segoe UI Emoji" font-size="20px" fill="#000000" text-anchor="middle" style="white-space: pre;" direction="ltr" dominant-baseline="text-before-edge">Backend</text></g><g stroke-linecap="round" transform="translate(378.2890625 370.23046875) rotate(358.61710106565215 57.970703125 31.634765625)"><path d="M15.82 0 L100.12 0 L107.04 0.99 L109.76 2.22 L113.72 6.18 L115.69 12.11 L115.94 47.45 L115.69 51.16 L113.72 57.09 L109.76 61.05 L107.04 62.28 L100.12 63.27 L15.82 63.27 L12.11 63.02 L6.18 61.05 L2.22 57.09 L0.25 51.16 L0.25 12.11 L0.99 8.9 L3.95 3.95 L8.9 0.99 L15.82 0" stroke="none" stroke-width="0" fill="#099268"></path><path d="M15.82 0 M15.82 0 C47.89 0, 79.97 0, 100.12 0 M15.82 0 C41.13 0, 66.44 0, 100.12 0 M100.12 0 C110.67 0, 115.94 5.27, 115.94 15.82 M100.12 0 C110.67 0, 115.94 5.27, 115.94 15.82 M115.94 15.82 C115.94 28.23, 115.94 40.64, 115.94 47.45 M115.94 15.82 C115.94 28.15, 115.94 40.49, 115.94 47.45 M115.94 47.45 C115.94 58, 110.67 63.27, 100.12 63.27 M115.94 47.45 C115.94 58, 110.67 63.27, 100.12 63.27 M100.12 63.27 C75.66 63.27, 51.2 63.27, 15.82 63.27 M100.12 63.27 C66.84 63.27, 33.55 63.27, 15.82 63.27 M15.82 63.27 C5.27 63.27, 0 58, 0 47.45 M15.82 63.27 C5.27 63.27, 0 58, 0 47.45 M0 47.45 C0 37.13, 0 26.82, 0 15.82 M0 47.45 C0 38.62, 0 29.79, 0 15.82 M0 15.82 C0 5.27, 5.27 0, 15.82 0 M0 15.82 C0 5.27, 5.27 0, 15.82 0" stroke="#000000" stroke-width="2" fill="none"></path></g><g transform="translate(389.384765625 389.865234375) rotate(358.61710106565215 46.875 12)"><text x="46.875" y="0" font-family="Cascadia, Segoe UI Emoji" font-size="20px" fill="#000000" text-anchor="middle" style="white-space: pre;" direction="ltr" dominant-baseline="text-before-edge">Frontend</text></g><g stroke-linecap="round" transform="translate(739.90625 13.99609375) rotate(0 57.970703125 31.634765625)"><path d="M15.82 0 L100.12 0 L107.04 0.99 L109.76 2.22 L113.72 6.18 L115.69 12.11 L115.94 47.45 L115.69 51.16 L113.72 57.09 L109.76 61.05 L107.04 62.28 L100.12 63.27 L15.82 63.27 L12.11 63.02 L6.18 61.05 L2.22 57.09 L0.25 51.16 L0.25 12.11 L0.99 8.9 L3.95 3.95 L8.9 0.99 L15.82 0" stroke="none" stroke-width="0" fill="#e9ecef"></path><path d="M15.82 0 M15.82 0 C47.35 0, 78.87 0, 100.12 0 M15.82 0 C42.43 0, 69.04 0, 100.12 0 M100.12 0 C110.67 0, 115.94 5.27, 115.94 15.82 M100.12 0 C110.67 0, 115.94 5.27, 115.94 15.82 M115.94 15.82 C115.94 27.89, 115.94 39.96, 115.94 47.45 M115.94 15.82 C115.94 25.49, 115.94 35.16, 115.94 47.45 M115.94 47.45 C115.94 58, 110.67 63.27, 100.12 63.27 M115.94 47.45 C115.94 58, 110.67 63.27, 100.12 63.27 M100.12 63.27 C76.86 63.27, 53.59 63.27, 15.82 63.27 M100.12 63.27 C69.22 63.27, 38.33 63.27, 15.82 63.27 M15.82 63.27 C5.27 63.27, 0 58, 0 47.45 M15.82 63.27 C5.27 63.27, 0 58, 0 47.45 M0 47.45 C0 35.36, 0 23.26, 0 15.82 M0 47.45 C0 39.57, 0 31.69, 0 15.82 M0 15.82 C0 5.27, 5.27 0, 15.82 0 M0 15.82 C0 5.27, 5.27 0, 15.82 0" stroke="#000000" stroke-width="2" fill="none"></path></g><g transform="translate(774.439453125 33.630859375) rotate(0 23.4375 12)"><text x="23.4375" y="0" font-family="Cascadia, Segoe UI Emoji" font-size="20px" fill="#000000" text-anchor="middle" style="white-space: pre;" direction="ltr" dominant-baseline="text-before-edge">Main</text></g><g stroke-linecap="round" transform="translate(514.83203125 10) rotate(0 57.970703125 31.634765625)"><path d="M15.82 0 L100.12 0 L107.04 0.99 L109.76 2.22 L113.72 6.18 L115.69 12.11 L115.94 47.45 L115.69 51.16 L113.72 57.09 L109.76 61.05 L107.04 62.28 L100.12 63.27 L15.82 63.27 L12.11 63.02 L6.18 61.05 L2.22 57.09 L0.25 51.16 L0.25 12.11 L0.99 8.9 L3.95 3.95 L8.9 0.99 L15.82 0" stroke="none" stroke-width="0" fill="#e9ecef"></path><path d="M15.82 0 M15.82 0 C44.98 0, 74.15 0, 100.12 0 M15.82 0 C35.93 0, 56.04 0, 100.12 0 M100.12 0 C110.67 0, 115.94 5.27, 115.94 15.82 M100.12 0 C110.67 0, 115.94 5.27, 115.94 15.82 M115.94 15.82 C115.94 26.73, 115.94 37.64, 115.94 47.45 M115.94 15.82 C115.94 28.29, 115.94 40.77, 115.94 47.45 M115.94 47.45 C115.94 58, 110.67 63.27, 100.12 63.27 M115.94 47.45 C115.94 58, 110.67 63.27, 100.12 63.27 M100.12 63.27 C70.87 63.27, 41.61 63.27, 15.82 63.27 M100.12 63.27 C83.03 63.27, 65.95 63.27, 15.82 63.27 M15.82 63.27 C5.27 63.27, 0 58, 0 47.45 M15.82 63.27 C5.27 63.27, 0 58, 0 47.45 M0 47.45 C0 36.88, 0 26.3, 0 15.82 M0 47.45 C0 36.39, 0 25.34, 0 15.82 M0 15.82 C0 5.27, 5.27 0, 15.82 0 M0 15.82 C0 5.27, 5.27 0, 15.82 0" stroke="#000000" stroke-width="2" fill="none"></path></g><g transform="translate(520.068359375 29.634765625) rotate(0 52.734375 12)"><text x="52.734375" y="0" font-family="Cascadia, Segoe UI Emoji" font-size="20px" fill="#000000" text-anchor="middle" style="white-space: pre;" direction="ltr" dominant-baseline="text-before-edge">Websocket</text></g><g stroke-linecap="round" transform="translate(238.2109375 10.72265625) rotate(0 57.970703125 31.634765625)"><path d="M15.82 0 L100.12 0 L107.04 0.99 L109.76 2.22 L113.72 6.18 L115.69 12.11 L115.94 47.45 L115.69 51.16 L113.72 57.09 L109.76 61.05 L107.04 62.28 L100.12 63.27 L15.82 63.27 L12.11 63.02 L6.18 61.05 L2.22 57.09 L0.25 51.16 L0.25 12.11 L0.99 8.9 L3.95 3.95 L8.9 0.99 L15.82 0" stroke="none" stroke-width="0" fill="#e9ecef"></path><path d="M15.82 0 M15.82 0 C46.88 0, 77.93 0, 100.12 0 M15.82 0 C35.53 0, 55.25 0, 100.12 0 M100.12 0 C110.67 0, 115.94 5.27, 115.94 15.82 M100.12 0 C110.67 0, 115.94 5.27, 115.94 15.82 M115.94 15.82 C115.94 26.32, 115.94 36.82, 115.94 47.45 M115.94 15.82 C115.94 25.25, 115.94 34.69, 115.94 47.45 M115.94 47.45 C115.94 58, 110.67 63.27, 100.12 63.27 M115.94 47.45 C115.94 58, 110.67 63.27, 100.12 63.27 M100.12 63.27 C81.73 63.27, 63.33 63.27, 15.82 63.27 M100.12 63.27 C83.01 63.27, 65.9 63.27, 15.82 63.27 M15.82 63.27 C5.27 63.27, 0 58, 0 47.45 M15.82 63.27 C5.27 63.27, 0 58, 0 47.45 M0 47.45 C0 40.45, 0 33.46, 0 15.82 M0 47.45 C0 41, 0 34.56, 0 15.82 M0 15.82 C0 5.27, 5.27 0, 15.82 0 M0 15.82 C0 5.27, 5.27 0, 15.82 0" stroke="#000000" stroke-width="2" fill="none"></path></g><g transform="translate(272.744140625 30.357421875) rotate(0 23.4375 12)"><text x="23.4375" y="0" font-family="Cascadia, Segoe UI Emoji" font-size="20px" fill="#000000" text-anchor="middle" style="white-space: pre;" direction="ltr" dominant-baseline="text-before-edge">Pool</text></g><g stroke-linecap="round" transform="translate(10 11.03515625) rotate(0 57.970703125 31.634765625)"><path d="M15.82 0 L100.12 0 L107.04 0.99 L109.76 2.22 L113.72 6.18 L115.69 12.11 L115.94 47.45 L115.69 51.16 L113.72 57.09 L109.76 61.05 L107.04 62.28 L100.12 63.27 L15.82 63.27 L12.11 63.02 L6.18 61.05 L2.22 57.09 L0.25 51.16 L0.25 12.11 L0.99 8.9 L3.95 3.95 L8.9 0.99 L15.82 0" stroke="none" stroke-width="0" fill="#e9ecef"></path><path d="M15.82 0 M15.82 0 C36.31 0, 56.81 0, 100.12 0 M15.82 0 C47.99 0, 80.17 0, 100.12 0 M100.12 0 C110.67 0, 115.94 5.27, 115.94 15.82 M100.12 0 C110.67 0, 115.94 5.27, 115.94 15.82 M115.94 15.82 C115.94 22.48, 115.94 29.15, 115.94 47.45 M115.94 15.82 C115.94 24.55, 115.94 33.28, 115.94 47.45 M115.94 47.45 C115.94 58, 110.67 63.27, 100.12 63.27 M115.94 47.45 C115.94 58, 110.67 63.27, 100.12 63.27 M100.12 63.27 C71.94 63.27, 43.76 63.27, 15.82 63.27 M100.12 63.27 C67.89 63.27, 35.66 63.27, 15.82 63.27 M15.82 63.27 C5.27 63.27, 0 58, 0 47.45 M15.82 63.27 C5.27 63.27, 0 58, 0 47.45 M0 47.45 C0 36.47, 0 25.48, 0 15.82 M0 47.45 C0 36.79, 0 26.14, 0 15.82 M0 15.82 C0 5.27, 5.27 0, 15.82 0 M0 15.82 C0 5.27, 5.27 0, 15.82 0" stroke="#000000" stroke-width="2" fill="none"></path></g><g transform="translate(32.814453125 30.669921875) rotate(0 35.15625 12)"><text x="35.15625" y="0" font-family="Cascadia, Segoe UI Emoji" font-size="20px" fill="#000000" text-anchor="middle" style="white-space: pre;" direction="ltr" dominant-baseline="text-before-edge">Client</text></g><g stroke-linecap="round" transform="translate(43.23046875 513.046875) rotate(0 57.970703125 31.634765625)"><path d="M15.82 0 L100.12 0 L107.04 0.99 L109.76 2.22 L113.72 6.18 L115.69 12.11 L115.94 47.45 L115.69 51.16 L113.72 57.09 L109.76 61.05 L107.04 62.28 L100.12 63.27 L15.82 63.27 L12.11 63.02 L6.18 61.05 L2.22 57.09 L0.25 51.16 L0.25 12.11 L0.99 8.9 L3.95 3.95 L8.9 0.99 L15.82 0" stroke="none" stroke-width="0" fill="#e9ecef"></path><path d="M15.82 0 M15.82 0 C37.2 0, 58.57 0, 100.12 0 M15.82 0 C35.87 0, 55.93 0, 100.12 0 M100.12 0 C110.67 0, 115.94 5.27, 115.94 15.82 M100.12 0 C110.67 0, 115.94 5.27, 115.94 15.82 M115.94 15.82 C115.94 26.72, 115.94 37.62, 115.94 47.45 M115.94 15.82 C115.94 26.36, 115.94 36.9, 115.94 47.45 M115.94 47.45 C115.94 58, 110.67 63.27, 100.12 63.27 M115.94 47.45 C115.94 58, 110.67 63.27, 100.12 63.27 M100.12 63.27 C76.43 63.27, 52.74 63.27, 15.82 63.27 M100.12 63.27 C68.7 63.27, 37.27 63.27, 15.82 63.27 M15.82 63.27 C5.27 63.27, 0 58, 0 47.45 M15.82 63.27 C5.27 63.27, 0 58, 0 47.45 M0 47.45 C0 40.22, 0 32.98, 0 15.82 M0 47.45 C0 34.96, 0 22.47, 0 15.82 M0 15.82 C0 5.27, 5.27 0, 15.82 0 M0 15.82 C0 5.27, 5.27 0, 15.82 0" stroke="#000000" stroke-width="2" fill="none"></path></g><g transform="translate(83.623046875 532.681640625) rotate(0 17.578125 12)"><text x="17.578125" y="0" font-family="Cascadia, Segoe UI Emoji" font-size="20px" fill="#000000" text-anchor="middle" style="white-space: pre;" direction="ltr" dominant-baseline="text-before-edge">API</text></g><g stroke-linecap="round" transform="translate(403.33203125 666.62109375) rotate(0 64 34)"><path d="M17 0 L111 0 L118.44 1.06 L121.36 2.39 L125.61 6.64 L127.73 13.02 L128 51 L126.94 58.44 L125.61 61.36 L121.36 65.61 L118.44 66.94 L111 68 L17 68 L9.56 66.94 L6.64 65.61 L2.39 61.36 L0.27 54.98 L0.27 13.02 L2.39 6.64 L6.64 2.39 L9.56 1.06 L17 0" stroke="none" stroke-width="0" fill="#e9ecef"></path><path d="M17 0 M17 0 C53.4 0, 89.81 0, 111 0 M17 0 C44.79 0, 72.57 0, 111 0 M111 0 C122.33 0, 128 5.67, 128 17 M111 0 C122.33 0, 128 5.67, 128 17 M128 17 C128 25.88, 128 34.75, 128 51 M128 17 C128 30.46, 128 43.92, 128 51 M128 51 C128 62.33, 122.33 68, 111 68 M128 51 C128 62.33, 122.33 68, 111 68 M111 68 C86.8 68, 62.6 68, 17 68 M111 68 C79.17 68, 47.34 68, 17 68 M17 68 C5.67 68, 0 62.33, 0 51 M17 68 C5.67 68, 0 62.33, 0 51 M0 51 C0 40.8, 0 30.59, 0 17 M0 51 C0 43.24, 0 35.49, 0 17 M0 17 C0 5.67, 5.67 0, 17 0 M0 17 C0 5.67, 5.67 0, 17 0" stroke="#000000" stroke-width="2" fill="none"></path></g><g transform="translate(426.31640625 676.62109375) rotate(0 41.015625 24)"><text x="41.015625" y="0" font-family="Cascadia, Segoe UI Emoji" font-size="20px" fill="#000000" text-anchor="middle" style="white-space: pre;" direction="ltr" dominant-baseline="text-before-edge">Chat </text><text x="41.015625" y="24" font-family="Cascadia, Segoe UI Emoji" font-size="20px" fill="#000000" text-anchor="middle" style="white-space: pre;" direction="ltr" dominant-baseline="text-before-edge">History</text></g><g stroke-linecap="round" transform="translate(836.52734375 661.43359375) rotate(0 57.970703125 31.634765625)"><path d="M15.82 0 L100.12 0 L107.04 0.99 L109.76 2.22 L113.72 6.18 L115.69 12.11 L115.94 47.45 L115.69 51.16 L113.72 57.09 L109.76 61.05 L107.04 62.28 L100.12 63.27 L15.82 63.27 L12.11 63.02 L6.18 61.05 L2.22 57.09 L0.25 51.16 L0.25 12.11 L0.99 8.9 L3.95 3.95 L8.9 0.99 L15.82 0" stroke="none" stroke-width="0" fill="#e9ecef"></path><path d="M15.82 0 M15.82 0 C33.33 0, 50.85 0, 100.12 0 M15.82 0 C43.09 0, 70.37 0, 100.12 0 M100.12 0 C110.67 0, 115.94 5.27, 115.94 15.82 M100.12 0 C110.67 0, 115.94 5.27, 115.94 15.82 M115.94 15.82 C115.94 23.25, 115.94 30.69, 115.94 47.45 M115.94 15.82 C115.94 26.31, 115.94 36.8, 115.94 47.45 M115.94 47.45 C115.94 58, 110.67 63.27, 100.12 63.27 M115.94 47.45 C115.94 58, 110.67 63.27, 100.12 63.27 M100.12 63.27 C74.62 63.27, 49.12 63.27, 15.82 63.27 M100.12 63.27 C83.11 63.27, 66.09 63.27, 15.82 63.27 M15.82 63.27 C5.27 63.27, 0 58, 0 47.45 M15.82 63.27 C5.27 63.27, 0 58, 0 47.45 M0 47.45 C0 35.98, 0 24.5, 0 15.82 M0 47.45 C0 36.48, 0 25.51, 0 15.82 M0 15.82 C0 5.27, 5.27 0, 15.82 0 M0 15.82 C0 5.27, 5.27 0, 15.82 0" stroke="#000000" stroke-width="2" fill="none"></path></g><g transform="translate(853.482421875 681.068359375) rotate(0 41.015625 12)"><text x="41.015625" y="0" font-family="Cascadia, Segoe UI Emoji" font-size="20px" fill="#000000" text-anchor="middle" style="white-space: pre;" direction="ltr" dominant-baseline="text-before-edge">Message</text></g><g stroke-linecap="round" transform="translate(627.3984375 664.25) rotate(0 57.970703125 31.634765625)"><path d="M15.82 0 L100.12 0 L107.04 0.99 L109.76 2.22 L113.72 6.18 L115.69 12.11 L115.94 47.45 L115.69 51.16 L113.72 57.09 L109.76 61.05 L107.04 62.28 L100.12 63.27 L15.82 63.27 L12.11 63.02 L6.18 61.05 L2.22 57.09 L0.25 51.16 L0.25 12.11 L0.99 8.9 L3.95 3.95 L8.9 0.99 L15.82 0" stroke="none" stroke-width="0" fill="#e9ecef"></path><path d="M15.82 0 M15.82 0 C37.26 0, 58.7 0, 100.12 0 M15.82 0 C37.88 0, 59.95 0, 100.12 0 M100.12 0 C110.67 0, 115.94 5.27, 115.94 15.82 M100.12 0 C110.67 0, 115.94 5.27, 115.94 15.82 M115.94 15.82 C115.94 25.54, 115.94 35.26, 115.94 47.45 M115.94 15.82 C115.94 27.86, 115.94 39.91, 115.94 47.45 M115.94 47.45 C115.94 58, 110.67 63.27, 100.12 63.27 M115.94 47.45 C115.94 58, 110.67 63.27, 100.12 63.27 M100.12 63.27 C66.61 63.27, 33.09 63.27, 15.82 63.27 M100.12 63.27 C71.73 63.27, 43.33 63.27, 15.82 63.27 M15.82 63.27 C5.27 63.27, 0 58, 0 47.45 M15.82 63.27 C5.27 63.27, 0 58, 0 47.45 M0 47.45 C0 39.64, 0 31.83, 0 15.82 M0 47.45 C0 37.58, 0 27.72, 0 15.82 M0 15.82 C0 5.27, 5.27 0, 15.82 0 M0 15.82 C0 5.27, 5.27 0, 15.82 0" stroke="#000000" stroke-width="2" fill="none"></path></g><g transform="translate(656.072265625 671.884765625) rotate(0 29.296875 24)"><text x="29.296875" y="0" font-family="Cascadia, Segoe UI Emoji" font-size="20px" fill="#000000" text-anchor="middle" style="white-space: pre;" direction="ltr" dominant-baseline="text-before-edge">Chat </text><text x="29.296875" y="24" font-family="Cascadia, Segoe UI Emoji" font-size="20px" fill="#000000" text-anchor="middle" style="white-space: pre;" direction="ltr" dominant-baseline="text-before-edge">Input</text></g><g stroke-linecap="round" transform="translate(587.80859375 516.26171875) rotate(0 71 32)"><path d="M16 0 L126 0 L133 1 L138 4 L139.75 6.25 L141.75 12.25 L142 48 L141 55 L139.75 57.75 L135.75 61.75 L133 63 L126 64 L16 64 L9 63 L6.25 61.75 L2.25 57.75 L0.25 51.75 L0.25 12.25 L1 9 L4 4 L9 1 L16 0" stroke="none" stroke-width="0" fill="#868e96"></path><path d="M16 0 M16 0 C45.23 0, 74.47 0, 126 0 M16 0 C50.3 0, 84.6 0, 126 0 M126 0 C136.67 0, 142 5.33, 142 16 M126 0 C136.67 0, 142 5.33, 142 16 M142 16 C142 23.42, 142 30.84, 142 48 M142 16 C142 28.55, 142 41.1, 142 48 M142 48 C142 58.67, 136.67 64, 126 64 M142 48 C142 58.67, 136.67 64, 126 64 M126 64 C103.15 64, 80.3 64, 16 64 M126 64 C94.87 64, 63.74 64, 16 64 M16 64 C5.33 64, 0 58.67, 0 48 M16 64 C5.33 64, 0 58.67, 0 48 M0 48 C0 37.91, 0 27.82, 0 16 M0 48 C0 36.21, 0 24.43, 0 16 M0 16 C0 5.33, 5.33 0, 16 0 M0 16 C0 5.33, 5.33 0, 16 0" stroke="#000000" stroke-width="2" fill="none"></path></g><g transform="translate(600.21484375 536.26171875) rotate(0 58.59375 12)"><text x="58.59375" y="0" font-family="Cascadia, Segoe UI Emoji" font-size="20px" fill="#000000" text-anchor="middle" style="white-space: pre;" direction="ltr" dominant-baseline="text-before-edge">Components</text></g><g stroke-linecap="round"><g transform="translate(373.71484375 242.1677789532755) rotate(0 -47.728515625 -80.3201227032755)"><path d="M0 0 C-27.26 0.24, -54.53 0.47, -95.46 0.83 M0 0 C-23.27 0.2, -46.55 0.4, -95.46 0.83 M-95.46 0.83 C-95.18 -56.61, -94.91 -114.05, -94.68 -161.47 M-95.46 0.83 C-95.18 -56.87, -94.91 -114.58, -94.68 -161.47" stroke="#000000" stroke-width="2" fill="none"></path></g><g transform="translate(373.71484375 242.1677789532755) rotate(0 -47.728515625 -80.3201227032755)"><path d="M-94.68 -161.47 L-88.41 -147.84 L-101.09 -147.9 L-94.68 -161.47" stroke="none" stroke-width="0" fill="#000000" fill-rule="evenodd"></path><path d="M-94.68 -161.47 C-92.89 -157.58, -91.1 -153.69, -88.41 -147.84 M-94.68 -161.47 C-93.15 -158.15, -91.62 -154.83, -88.41 -147.84 M-88.41 -147.84 C-92.9 -147.87, -97.38 -147.89, -101.09 -147.9 M-88.41 -147.84 C-92.92 -147.87, -97.42 -147.89, -101.09 -147.9 M-101.09 -147.9 C-99.04 -152.25, -96.98 -156.6, -94.68 -161.47 M-101.09 -147.9 C-99.12 -152.08, -97.14 -156.26, -94.68 -161.47 M-94.68 -161.47 C-94.68 -161.47, -94.68 -161.47, -94.68 -161.47 M-94.68 -161.47 C-94.68 -161.47, -94.68 -161.47, -94.68 -161.47" stroke="#000000" stroke-width="2" fill="none"></path></g></g><mask></mask><g stroke-linecap="round"><g transform="translate(364.171875 399.9568414532755) rotate(0 -131.576171875 54.77157927336225)"><path d="M0 0 C-89.94 0.49, -179.88 0.98, -260.46 1.43 M0 0 C-80.68 0.44, -161.35 0.88, -260.46 1.43 M-260.46 1.43 C-261.44 40.83, -262.42 80.24, -263.15 109.54 M-260.46 1.43 C-261.42 40.06, -262.38 78.7, -263.15 109.54" stroke="#000000" stroke-width="2" fill="none"></path></g><g transform="translate(364.171875 399.9568414532755) rotate(0 -131.576171875 54.77157927336225)"><path d="M-263.15 109.54 L-269.15 95.79 L-256.48 96.11 L-263.15 109.54" stroke="none" stroke-width="0" fill="#000000" fill-rule="evenodd"></path><path d="M-263.15 109.54 C-265.22 104.8, -267.3 100.05, -269.15 95.79 M-263.15 109.54 C-265.01 105.28, -266.87 101.03, -269.15 95.79 M-269.15 95.79 C-264.53 95.91, -259.91 96.03, -256.48 96.11 M-269.15 95.79 C-264.62 95.91, -260.09 96.02, -256.48 96.11 M-256.48 96.11 C-258.24 99.67, -260.01 103.22, -263.15 109.54 M-256.48 96.11 C-258.28 99.74, -260.08 103.37, -263.15 109.54 M-263.15 109.54 C-263.15 109.54, -263.15 109.54, -263.15 109.54 M-263.15 109.54 C-263.15 109.54, -263.15 109.54, -263.15 109.54" stroke="#000000" stroke-width="2" fill="none"></path></g></g><mask></mask><g stroke-linecap="round"><g transform="translate(505.31640625 391.6521539532755) rotate(0 71.34765625 55.4689397967245)"><path d="M0 0 C41.49 -0.17, 82.99 -0.34, 142.7 -0.58 M0 0 C44.25 -0.18, 88.5 -0.36, 142.7 -0.58 M142.7 -0.58 C142.53 25.29, 142.37 51.15, 141.98 111.52 M142.7 -0.58 C142.43 41.31, 142.16 83.2, 141.98 111.52" stroke="#000000" stroke-width="2" fill="none"></path></g><g transform="translate(505.31640625 391.6521539532755) rotate(0 71.34765625 55.4689397967245)"><path d="M141.98 111.52 L135.73 97.88 L148.41 97.96 L141.98 111.52" stroke="none" stroke-width="0" fill="#000000" fill-rule="evenodd"></path><path d="M141.98 111.52 C140.17 107.55, 138.35 103.59, 135.73 97.88 M141.98 111.52 C140.05 107.29, 138.11 103.06, 135.73 97.88 M135.73 97.88 C138.66 97.9, 141.58 97.92, 148.41 97.96 M135.73 97.88 C140.47 97.91, 145.21 97.94, 148.41 97.96 M148.41 97.96 C146.93 101.07, 145.46 104.19, 141.98 111.52 M148.41 97.96 C146.85 101.26, 145.29 104.55, 141.98 111.52 M141.98 111.52 C141.98 111.52, 141.98 111.52, 141.98 111.52 M141.98 111.52 C141.98 111.52, 141.98 111.52, 141.98 111.52" stroke="#000000" stroke-width="2" fill="none"></path></g></g><mask></mask><g stroke-linecap="round"><g transform="translate(742.64453125 541.3357477032755) rotate(0 71.34765625 55.4689397967245)"><path d="M0 0 C49.16 -0.2, 98.33 -0.4, 142.7 -0.58 M0 0 C46.17 -0.19, 92.35 -0.37, 142.7 -0.58 M142.7 -0.58 C142.43 40.69, 142.17 81.95, 141.98 111.52 M142.7 -0.58 C142.46 36.25, 142.23 73.08, 141.98 111.52" stroke="#000000" stroke-width="2" fill="none"></path></g><g transform="translate(742.64453125 541.3357477032755) rotate(0 71.34765625 55.4689397967245)"><path d="M141.98 111.52 L135.73 97.88 L148.41 97.96 L141.98 111.52" stroke="none" stroke-width="0" fill="#000000" fill-rule="evenodd"></path><path d="M141.98 111.52 C139.83 106.82, 137.68 102.12, 135.73 97.88 M141.98 111.52 C139.96 107.1, 137.94 102.69, 135.73 97.88 M135.73 97.88 C140.4 97.91, 145.07 97.94, 148.41 97.96 M135.73 97.88 C139.9 97.91, 144.06 97.93, 148.41 97.96 M148.41 97.96 C145.97 103.11, 143.52 108.27, 141.98 111.52 M148.41 97.96 C146.42 102.17, 144.42 106.37, 141.98 111.52 M141.98 111.52 C141.98 111.52, 141.98 111.52, 141.98 111.52 M141.98 111.52 C141.98 111.52, 141.98 111.52, 141.98 111.52" stroke="#000000" stroke-width="2" fill="none"></path></g></g><mask></mask><g stroke-linecap="round"><g transform="translate(577.3125 543.1834039532755) rotate(0 -49.629098990794546 56.2872991717245)"><path d="M0 0 C-35.53 -0.03, -71.06 -0.07, -96.46 -0.09 M0 0 C-27.72 -0.03, -55.44 -0.05, -96.46 -0.09 M-96.46 -0.09 C-97.48 41.15, -98.51 82.38, -99.26 112.66 M-96.46 -0.09 C-97.38 37.04, -98.3 74.17, -99.26 112.66" stroke="#000000" stroke-width="2" fill="none"></path></g><g transform="translate(577.3125 543.1834039532755) rotate(0 -49.629098990794546 56.2872991717245)"><path d="M-99.26 112.66 L-105.26 98.92 L-92.58 99.23 L-99.26 112.66" stroke="none" stroke-width="0" fill="#000000" fill-rule="evenodd"></path><path d="M-99.26 112.66 C-101.47 107.6, -103.68 102.54, -105.26 98.92 M-99.26 112.66 C-100.98 108.71, -102.71 104.76, -105.26 98.92 M-105.26 98.92 C-100.62 99.03, -95.99 99.15, -92.58 99.23 M-105.26 98.92 C-101.08 99.02, -96.91 99.12, -92.58 99.23 M-92.58 99.23 C-94.15 102.38, -95.72 105.54, -99.26 112.66 M-92.58 99.23 C-94.06 102.19, -95.53 105.16, -99.26 112.66 M-99.26 112.66 C-99.26 112.66, -99.26 112.66, -99.26 112.66 M-99.26 112.66 C-99.26 112.66, -99.26 112.66, -99.26 112.66" stroke="#000000" stroke-width="2" fill="none"></path></g></g><mask></mask><g stroke-linecap="round"><g transform="translate(674.5 583.3044977032755) rotate(0 0.7166041342054541 36.79111052336225)"><path d="M0 0 C0.43 9.2, 0.85 18.4, 1.19 25.63 M0 0 C0.25 5.33, 0.49 10.66, 1.19 25.63 M1.19 25.63 C1.27 41.66, 1.35 57.68, 1.43 73.58 M1.19 25.63 C1.29 44.74, 1.38 63.85, 1.43 73.58" stroke="#000000" stroke-width="2" fill="none"></path></g><g transform="translate(674.5 583.3044977032755) rotate(0 0.7166041342054541 36.79111052336225)"><path d="M1.43 73.58 L-4.98 60.02 L7.7 59.96 L1.43 73.58" stroke="none" stroke-width="0" fill="#000000" fill-rule="evenodd"></path><path d="M1.43 73.58 C-0.87 68.71, -3.17 63.85, -4.98 60.02 M1.43 73.58 C0.1 70.76, -1.23 67.94, -4.98 60.02 M-4.98 60.02 C-0.74 60, 3.5 59.98, 7.7 59.96 M-4.98 60.02 C0.08 59.99, 5.13 59.97, 7.7 59.96 M7.7 59.96 C5.71 64.3, 3.71 68.64, 1.43 73.58 M7.7 59.96 C6.39 62.8, 5.08 65.65, 1.43 73.58 M1.43 73.58 C1.43 73.58, 1.43 73.58, 1.43 73.58 M1.43 73.58 C1.43 73.58, 1.43 73.58, 1.43 73.58" stroke="#000000" stroke-width="2" fill="none"></path></g></g><mask></mask><g stroke-linecap="round"><g transform="translate(444.453125 366.2927789532755) rotate(0 -3.169921875 -38.59365510163775)"><path d="M0 0 C-0.74 -6.91, -1.49 -13.82, -2.76 -25.64 M0 0 C-1.06 -9.83, -2.11 -19.66, -2.76 -25.64 M-2.76 -25.64 C-3.88 -41.82, -5.01 -58, -6.34 -77.19 M-2.76 -25.64 C-4.09 -44.84, -5.43 -64.04, -6.34 -77.19" stroke="#000000" stroke-width="2" fill="none"></path></g><g transform="translate(444.453125 366.2927789532755) rotate(0 -3.169921875 -38.59365510163775)"><path d="M-6.34 -77.19 L0.93 -64.06 L-11.72 -63.19 L-6.34 -77.19" stroke="none" stroke-width="0" fill="#000000" fill-rule="evenodd"></path><path d="M-6.34 -77.19 C-4.38 -73.65, -2.42 -70.11, 0.93 -64.06 M-6.34 -77.19 C-3.55 -72.16, -0.77 -67.13, 0.93 -64.06 M0.93 -64.06 C-3.04 -63.79, -7.01 -63.51, -11.72 -63.19 M0.93 -64.06 C-3.78 -63.74, -8.5 -63.41, -11.72 -63.19 M-11.72 -63.19 C-10.31 -66.86, -8.89 -70.54, -6.34 -77.19 M-11.72 -63.19 C-10.28 -66.93, -8.84 -70.68, -6.34 -77.19 M-6.34 -77.19 C-6.34 -77.19, -6.34 -77.19, -6.34 -77.19 M-6.34 -77.19 C-6.34 -77.19, -6.34 -77.19, -6.34 -77.19" stroke="#000000" stroke-width="2" fill="none"></path></g></g><mask></mask><g stroke-linecap="round"><g transform="translate(512.625 235.3865289532755) rotate(0 26.5625 -80.2302789532755)"><path d="M0 0 C17.1 0.3, 34.2 0.6, 52.35 0.92 M0 0 C13.76 0.24, 27.53 0.48, 52.35 0.92 M52.35 0.92 C52.63 -58.46, 52.92 -117.83, 53.13 -161.38 M52.35 0.92 C52.52 -35.13, 52.7 -71.18, 53.13 -161.38" stroke="#000000" stroke-width="2" fill="none"></path></g><g transform="translate(512.625 235.3865289532755) rotate(0 26.5625 -80.2302789532755)"><path d="M53.13 -161.38 L59.4 -147.75 L46.72 -147.81 L53.13 -161.38" stroke="none" stroke-width="0" fill="#000000" fill-rule="evenodd"></path><path d="M53.13 -161.38 C55.17 -156.93, 57.22 -152.48, 59.4 -147.75 M53.13 -161.38 C54.77 -157.8, 56.42 -154.21, 59.4 -147.75 M59.4 -147.75 C54.76 -147.78, 50.12 -147.8, 46.72 -147.81 M59.4 -147.75 C56.58 -147.77, 53.77 -147.78, 46.72 -147.81 M46.72 -147.81 C48.4 -151.38, 50.09 -154.94, 53.13 -161.38 M46.72 -147.81 C49.04 -152.73, 51.36 -157.64, 53.13 -161.38 M53.13 -161.38 C53.13 -161.38, 53.13 -161.38, 53.13 -161.38 M53.13 -161.38 C53.13 -161.38, 53.13 -161.38, 53.13 -161.38" stroke="#000000" stroke-width="2" fill="none"></path></g></g><mask></mask><g stroke-linecap="round"><g transform="translate(371.515625 263.2966852032755) rotate(0 -154.595703125 -91.79482697663775)"><path d="M0 0 C-80.78 -0.09, -161.55 -0.18, -305.75 -0.33 M0 0 C-76.39 -0.08, -152.79 -0.17, -305.75 -0.33 M-305.75 -0.33 C-306.89 -60.81, -308.02 -121.28, -309.19 -183.59 M-305.75 -0.33 C-306.66 -48.44, -307.56 -96.55, -309.19 -183.59" stroke="#000000" stroke-width="2" fill="none"></path></g><g transform="translate(371.515625 263.2966852032755) rotate(0 -154.595703125 -91.79482697663775)"><path d="M-309.19 -183.59 L-302.6 -170.12 L-315.27 -169.88 L-309.19 -183.59" stroke="none" stroke-width="0" fill="#000000" fill-rule="evenodd"></path><path d="M-309.19 -183.59 C-307.45 -180.03, -305.71 -176.47, -302.6 -170.12 M-309.19 -183.59 C-307.54 -180.22, -305.9 -176.86, -302.6 -170.12 M-302.6 -170.12 C-306.78 -170.04, -310.96 -169.96, -315.27 -169.88 M-302.6 -170.12 C-305.93 -170.05, -309.25 -169.99, -315.27 -169.88 M-315.27 -169.88 C-313.86 -173.07, -312.44 -176.26, -309.19 -183.59 M-315.27 -169.88 C-313.34 -174.25, -311.4 -178.61, -309.19 -183.59 M-309.19 -183.59 C-309.19 -183.59, -309.19 -183.59, -309.19 -183.59 M-309.19 -183.59 C-309.19 -183.59, -309.19 -183.59, -309.19 -183.59" stroke="#000000" stroke-width="2" fill="none"></path></g></g><mask></mask><g stroke-linecap="round"><g transform="translate(515.95703125 268.1521539532755) rotate(0 138.892578125 -89.7537164532755)"><path d="M0 0 C63.26 0.43, 126.52 0.85, 277.79 1.88 M0 0 C79.12 0.53, 158.24 1.07, 277.79 1.88 M277.79 1.88 C276.62 -60.12, 275.46 -122.11, 274.35 -181.38 M277.79 1.88 C276.72 -55.14, 275.65 -112.15, 274.35 -181.38" stroke="#000000" stroke-width="2" fill="none"></path></g><g transform="translate(515.95703125 268.1521539532755) rotate(0 138.892578125 -89.7537164532755)"><path d="M274.35 -181.38 L280.94 -167.91 L268.26 -167.67 L274.35 -181.38" stroke="none" stroke-width="0" fill="#000000" fill-rule="evenodd"></path><path d="M274.35 -181.38 C275.85 -178.31, 277.35 -175.25, 280.94 -167.91 M274.35 -181.38 C276.23 -177.55, 278.1 -173.71, 280.94 -167.91 M280.94 -167.91 C276.65 -167.83, 272.36 -167.75, 268.26 -167.67 M280.94 -167.91 C277 -167.84, 273.05 -167.76, 268.26 -167.67 M268.26 -167.67 C270.63 -173.01, 273 -178.34, 274.35 -181.38 M268.26 -167.67 C270.01 -171.6, 271.75 -175.52, 274.35 -181.38 M274.35 -181.38 C274.35 -181.38, 274.35 -181.38, 274.35 -181.38 M274.35 -181.38 C274.35 -181.38, 274.35 -181.38, 274.35 -181.38" stroke="#000000" stroke-width="2" fill="none"></path></g></g><mask></mask></svg>